# xmcd CD database file
# Copyright (C) 1995-1998 Ti Kan
#
# Track frame offsets:
#	150
#	11480
#	25337
#	39192
#	55432
#	68597
#	86027
#	101737
#	127485
#	142120
#	161605
#	171462
#	189155
#	205680
#	218840
#	237132
#	253775
#	273995
#	283730
#	297905
#	315727
#
# Disc length: 4436 seconds
#
# Revision: 1
# Processed by: cddbd v1.4PL0 Copyright (c) Steve Scherf et al.
# Submitted via: CDex 1.30Release
#
DISCID=3f115215
DTITLE=Various Artist - The Bluesville Years
DYEAR=1998
DGENRE=Blues
TTITLE0=Wake Up Working Woman, KC Douglas
TTITLE1=Broken Heart, KC Douglas
TTITLE2=Evil Woman Blues, Alec Seward
TTITLE3=Creepin' Blues, Alec Seward
TTITLE4=You is One Black Rat, Doug Quattlebaum
TTITLE5=Sweet Little Woman, Doug Quattlebaum
TTITLE6='Bama Bound, Scrapper Blackwell
TTITLE7=Blues and Trouble, Scrapper Blackwell
TTITLE8=Key to the Highway, Jesse Fuller
TTITLE9=Stranger Blues, Jesse Fuller
TTITLE10=That's All Right, Snooks Eaglin
TTITLE11=Well, I Had My Fun, Snooks Eaglin
TTITLE12=Cairo is My Baby's Home, Henry Townsend
TTITLE13=I Asked Her If She Loved Me, Henry Townsend
TTITLE14=Pity and a Shame, Mercy Dee Walton
TTITLE15=Have You Ever Been Out of the Country, Mercy Dee Walton
TTITLE16=Gimme a Smile, Shakey Jake
TTITLE17=Jake's Cha Cha, Shakey Jake
TTITLE18=I'm Tired of Wandering, Arbee Stidham
TTITLE19=You Can't Live in This World by Yourself, Arbee Stidham
TTITLE20=Goin' Down South, St. Louis Jimmy
EXTD=YEAR: 1998 ID3G:   0
EXTT0=
EXTT1=
EXTT2=
EXTT3=
EXTT4=
EXTT5=
EXTT6=
EXTT7=
EXTT8=
EXTT9=
EXTT10=
EXTT11=
EXTT12=
EXTT13=
EXTT14=
EXTT15=
EXTT16=
EXTT17=
EXTT18=
EXTT19=
EXTT20=
PLAYORDER=
